# Blender v2.91.0 OBJ File: 'untitled.blend'
# www.blender.org
mtllib Showroom.mtl
o Cube
v 10.000000 5.050000 -10.000000
v 10.000000 4.950000 -10.000000
v 10.000000 5.050000 10.000000
v 10.000000 4.950000 10.000000
v -10.000000 5.050000 -10.000000
v -10.000000 4.950000 -10.000000
v -10.000000 5.050000 10.000000
v -10.000000 4.950000 10.000000
vt 0.625000 0.500000
vt 0.875000 0.500000
vt 0.875000 0.750000
vt 0.625000 0.750000
vt 0.375000 0.750000
vt 0.625000 1.000000
vt 0.375000 1.000000
vt 0.375000 0.000000
vt 0.625000 0.000000
vt 0.625000 0.250000
vt 0.375000 0.250000
vt 0.125000 0.500000
vt 0.375000 0.500000
vt 0.125000 0.750000
vn 0.0000 1.0000 0.0000
vn 0.0000 0.0000 1.0000
vn -1.0000 0.0000 0.0000
vn 0.0000 -1.0000 0.0000
vn 1.0000 0.0000 0.0000
vn 0.0000 0.0000 -1.0000
usemtl Material.005
s off
f 1/1/1 5/2/1 7/3/1 3/4/1
f 4/5/2 3/4/2 7/6/2 8/7/2
f 8/8/3 7/9/3 5/10/3 6/11/3
f 6/12/4 2/13/4 4/5/4 8/14/4
f 2/13/5 1/1/5 3/4/5 4/5/5
f 6/11/6 5/10/6 1/1/6 2/13/6
o Cube.005
v 10.000000 0.050000 -10.000000
v 10.000000 -0.050000 -10.000000
v 10.000000 0.050000 10.000000
v 10.000000 -0.050000 10.000000
v -10.000000 0.050000 -10.000000
v -10.000000 -0.050000 -10.000000
v -10.000000 0.050000 10.000000
v -10.000000 -0.050000 10.000000
vt 0.625000 0.500000
vt 0.875000 0.500000
vt 0.875000 0.750000
vt 0.625000 0.750000
vt 0.375000 0.750000
vt 0.625000 1.000000
vt 0.375000 1.000000
vt 0.375000 0.000000
vt 0.625000 0.000000
vt 0.625000 0.250000
vt 0.375000 0.250000
vt 0.125000 0.500000
vt 0.375000 0.500000
vt 0.125000 0.750000
vn 0.0000 1.0000 0.0000
vn 0.0000 0.0000 1.0000
vn -1.0000 0.0000 0.0000
vn 0.0000 -1.0000 0.0000
vn 1.0000 0.0000 0.0000
vn 0.0000 0.0000 -1.0000
usemtl Material.002
s off
f 9/15/7 13/16/7 15/17/7 11/18/7
f 12/19/8 11/18/8 15/20/8 16/21/8
f 16/22/9 15/23/9 13/24/9 14/25/9
f 14/26/10 10/27/10 12/19/10 16/28/10
f 10/27/11 9/15/11 11/18/11 12/19/11
f 14/25/12 13/24/12 9/15/12 10/27/12
o Cube.022_Cube.023
v -0.150000 0.050000 -9.700001
v -0.150000 4.950000 -9.700001
v -0.150000 0.050000 -10.000000
v -0.150000 4.950000 -10.000000
v 0.150000 0.050000 -9.700001
v 0.150000 4.950000 -9.700001
v 0.150000 0.050000 -10.000000
v 0.150000 4.950000 -10.000000
v 9.700000 0.050000 10.000002
v 9.700000 4.950000 10.000002
v 9.700000 0.050000 9.700003
v 9.700000 4.950000 9.700003
v 10.000000 0.050000 10.000002
v 10.000000 4.950000 10.000002
v 10.000000 0.050000 9.700003
v 10.000000 4.950000 9.700003
v 9.700000 0.050000 -9.699999
v 9.700000 4.950000 -9.699999
v 9.700000 0.050000 -9.999999
v 9.700000 4.950000 -9.999999
v 10.000000 0.050000 -9.699999
v 10.000000 4.950000 -9.699999
v 10.000000 0.050000 -9.999999
v 10.000000 4.950000 -9.999999
v -10.000000 0.050000 10.000002
v -10.000000 4.950000 10.000002
v -10.000000 0.050000 9.700003
v -10.000000 4.950000 9.700003
v -9.700000 0.050000 10.000002
v -9.700000 4.950000 10.000002
v -9.700000 0.050000 9.700003
v -9.700000 4.950000 9.700003
v -8.000000 3.650000 1.000000
v -8.000000 4.950000 1.000000
v -8.000000 3.650000 -7.000000
v -8.000000 4.950000 -7.000000
v -2.000000 3.650000 1.000000
v -2.000000 4.950000 1.000000
v -2.000000 3.650000 -7.000000
v -2.000000 4.950000 -7.000000
v -2.000000 0.050000 -6.999999
v -2.000000 4.950000 -6.999999
v -10.000000 0.050000 -6.999999
v -10.000000 4.950000 -6.999999
v -2.000000 0.050000 -9.999999
v -2.000000 4.950000 -9.999999
v -10.000000 0.050000 -9.999999
v -10.000000 4.950000 -9.999999
v -10.000000 0.050000 1.000000
v -10.000000 4.950000 1.000000
v -10.000000 0.050000 -7.000000
v -10.000000 4.950000 -7.000000
v -8.000000 0.050000 1.000000
v -8.000000 4.950000 1.000000
v -8.000000 0.050000 -7.000000
v -8.000000 4.950000 -7.000000
v -2.450000 0.050000 1.150001
v -2.450000 4.950000 1.150001
v -2.450000 0.050000 0.550000
v -2.450000 4.950000 0.550000
v -1.850000 0.050000 1.150001
v -1.850000 4.950000 1.150001
v -1.850000 0.050000 0.550000
v -1.850000 4.950000 0.550000
v -9.749999 4.191904 10.000002
v -9.750000 4.191903 -9.999999
v -9.950000 4.191904 10.000002
v -9.950001 4.191903 -9.999999
v -9.749999 3.991904 10.000002
v -9.750000 3.991903 -9.999999
v -9.950000 3.991904 10.000002
v -9.950001 3.991903 -9.999999
v -10.000000 4.191904 9.950003
v 10.000000 4.191903 9.950003
v -10.000000 4.191904 9.750002
v 10.000000 4.191903 9.750002
v -10.000000 3.991904 9.950003
v 10.000000 3.991903 9.950003
v -10.000000 3.991904 9.750002
v 10.000000 3.991903 9.750002
v -10.000000 4.191904 -9.749999
v 10.000000 4.191903 -9.749999
v -10.000000 4.191904 -9.949999
v 10.000000 4.191903 -9.949999
v -10.000000 3.991904 -9.749999
v 10.000000 3.991903 -9.749999
v -10.000000 3.991904 -9.949999
v 10.000000 3.991903 -9.949999
v 9.950001 4.191904 10.000002
v 9.950000 4.191903 -9.999999
v 9.750000 4.191904 10.000002
v 9.749999 4.191903 -9.999999
v 9.950001 3.991904 10.000002
v 9.950000 3.991903 -9.999999
v 9.750000 3.991904 10.000002
v 9.749999 3.991903 -9.999999
v 4.775000 0.050000 10.000002
v 4.775000 4.950000 10.000002
v 4.775000 0.050000 9.700003
v 4.775000 4.950000 9.700003
v 5.075000 0.050000 10.000002
v 5.075000 4.950000 10.000002
v 5.075000 0.050000 9.700003
v 5.075000 4.950000 9.700003
v -0.150000 0.050000 10.000002
v -0.150000 4.950000 10.000002
v -0.150000 0.050000 9.700003
v -0.150000 4.950000 9.700003
v 0.150000 0.050000 10.000002
v 0.150000 4.950000 10.000002
v 0.150000 0.050000 9.700003
v 0.150000 4.950000 9.700003
v -5.075000 0.050000 10.000002
v -5.075000 4.950000 10.000002
v -5.075000 0.050000 9.700003
v -5.075000 4.950000 9.700003
v -4.775000 0.050000 10.000002
v -4.775000 4.950000 10.000002
v -4.775000 0.050000 9.700003
v -4.775000 4.950000 9.700003
v -10.000000 0.050000 5.075000
v -10.000000 4.950000 5.075000
v -10.000000 0.050000 4.775001
v -10.000000 4.950000 4.775001
v -9.700000 0.050000 5.075000
v -9.700000 4.950000 5.075000
v -9.700000 0.050000 4.775001
v -9.700000 4.950000 4.775001
v 9.700000 0.050000 0.150001
v 9.700000 4.950000 0.150001
v 9.700000 0.050000 -0.150000
v 9.700000 4.950000 -0.150000
v 10.000000 0.050000 0.150001
v 10.000000 4.950000 0.150001
v 10.000000 0.050000 -0.150000
v 10.000000 4.950000 -0.150000
v 9.700000 0.050000 5.075000
v 9.700000 4.950000 5.075000
v 9.700000 0.050000 4.775001
v 9.700000 4.950000 4.775001
v 10.000000 0.050000 5.075000
v 10.000000 4.950000 5.075000
v 10.000000 0.050000 4.775001
v 10.000000 4.950000 4.775001
v 9.700000 0.050000 -4.774999
v 9.700000 4.950000 -4.774999
v 9.700000 0.050000 -5.074999
v 9.700000 4.950000 -5.074999
v 10.000000 0.050000 -4.774999
v 10.000000 4.950000 -4.774999
v 10.000000 0.050000 -5.074999
v 10.000000 4.950000 -5.074999
v 4.775000 0.050000 -9.699999
v 4.775000 4.950000 -9.699999
v 4.775000 0.050000 -9.999999
v 4.775000 4.950000 -9.999999
v 5.075000 0.050000 -9.699999
v 5.075000 4.950000 -9.699999
v 5.075000 0.050000 -9.999999
v 5.075000 4.950000 -9.999999
vt 0.375000 0.000000
vt 0.625000 0.000000
vt 0.625000 0.250000
vt 0.375000 0.250000
vt 0.625000 0.500000
vt 0.375000 0.500000
vt 0.625000 0.750000
vt 0.375000 0.750000
vt 0.625000 1.000000
vt 0.375000 1.000000
vt 0.125000 0.500000
vt 0.125000 0.750000
vt 0.875000 0.500000
vt 0.875000 0.750000
vt 0.375000 0.000000
vt 0.625000 0.000000
vt 0.625000 0.250000
vt 0.375000 0.250000
vt 0.625000 0.500000
vt 0.375000 0.500000
vt 0.625000 0.750000
vt 0.375000 0.750000
vt 0.625000 1.000000
vt 0.375000 1.000000
vt 0.125000 0.500000
vt 0.125000 0.750000
vt 0.875000 0.500000
vt 0.875000 0.750000
vt 0.375000 0.000000
vt 0.625000 0.000000
vt 0.625000 0.250000
vt 0.375000 0.250000
vt 0.625000 0.500000
vt 0.375000 0.500000
vt 0.625000 0.750000
vt 0.375000 0.750000
vt 0.625000 1.000000
vt 0.375000 1.000000
vt 0.125000 0.500000
vt 0.125000 0.750000
vt 0.875000 0.500000
vt 0.875000 0.750000
vt 0.375000 0.000000
vt 0.625000 0.000000
vt 0.625000 0.250000
vt 0.375000 0.250000
vt 0.625000 0.500000
vt 0.375000 0.500000
vt 0.625000 0.750000
vt 0.375000 0.750000
vt 0.625000 1.000000
vt 0.375000 1.000000
vt 0.125000 0.500000
vt 0.125000 0.750000
vt 0.875000 0.500000
vt 0.875000 0.750000
vt 0.375000 0.000000
vt 0.625000 0.000000
vt 0.625000 0.250000
vt 0.375000 0.250000
vt 0.625000 0.500000
vt 0.375000 0.500000
vt 0.625000 0.750000
vt 0.375000 0.750000
vt 0.625000 1.000000
vt 0.375000 1.000000
vt 0.125000 0.500000
vt 0.125000 0.750000
vt 0.875000 0.500000
vt 0.875000 0.750000
vt 0.375000 0.000000
vt 0.625000 0.000000
vt 0.625000 0.250000
vt 0.375000 0.250000
vt 0.625000 0.500000
vt 0.375000 0.500000
vt 0.625000 0.750000
vt 0.375000 0.750000
vt 0.625000 1.000000
vt 0.375000 1.000000
vt 0.125000 0.500000
vt 0.125000 0.750000
vt 0.875000 0.500000
vt 0.875000 0.750000
vt 0.375000 0.000000
vt 0.625000 0.000000
vt 0.625000 0.250000
vt 0.375000 0.250000
vt 0.625000 0.500000
vt 0.375000 0.500000
vt 0.625000 0.750000
vt 0.375000 0.750000
vt 0.625000 1.000000
vt 0.375000 1.000000
vt 0.125000 0.500000
vt 0.125000 0.750000
vt 0.875000 0.500000
vt 0.875000 0.750000
vt 0.375000 0.000000
vt 0.625000 0.000000
vt 0.625000 0.250000
vt 0.375000 0.250000
vt 0.625000 0.500000
vt 0.375000 0.500000
vt 0.625000 0.750000
vt 0.375000 0.750000
vt 0.625000 1.000000
vt 0.375000 1.000000
vt 0.125000 0.500000
vt 0.125000 0.750000
vt 0.875000 0.500000
vt 0.875000 0.750000
vt 0.375000 0.000000
vt 0.625000 0.000000
vt 0.625000 0.250000
vt 0.375000 0.250000
vt 0.625000 0.500000
vt 0.375000 0.500000
vt 0.625000 0.750000
vt 0.375000 0.750000
vt 0.625000 1.000000
vt 0.375000 1.000000
vt 0.125000 0.500000
vt 0.125000 0.750000
vt 0.875000 0.500000
vt 0.875000 0.750000
vt 0.375000 0.000000
vt 0.625000 0.000000
vt 0.625000 0.250000
vt 0.375000 0.250000
vt 0.625000 0.500000
vt 0.375000 0.500000
vt 0.625000 0.750000
vt 0.375000 0.750000
vt 0.625000 1.000000
vt 0.375000 1.000000
vt 0.125000 0.500000
vt 0.125000 0.750000
vt 0.875000 0.500000
vt 0.875000 0.750000
vt 0.375000 0.000000
vt 0.625000 0.000000
vt 0.625000 0.250000
vt 0.375000 0.250000
vt 0.625000 0.500000
vt 0.375000 0.500000
vt 0.625000 0.750000
vt 0.375000 0.750000
vt 0.625000 1.000000
vt 0.375000 1.000000
vt 0.125000 0.500000
vt 0.125000 0.750000
vt 0.875000 0.500000
vt 0.875000 0.750000
vt 0.375000 0.000000
vt 0.625000 0.000000
vt 0.625000 0.250000
vt 0.375000 0.250000
vt 0.625000 0.500000
vt 0.375000 0.500000
vt 0.625000 0.750000
vt 0.375000 0.750000
vt 0.625000 1.000000
vt 0.375000 1.000000
vt 0.125000 0.500000
vt 0.125000 0.750000
vt 0.875000 0.500000
vt 0.875000 0.750000
vt 0.375000 0.000000
vt 0.625000 0.000000
vt 0.625000 0.250000
vt 0.375000 0.250000
vt 0.625000 0.500000
vt 0.375000 0.500000
vt 0.625000 0.750000
vt 0.375000 0.750000
vt 0.625000 1.000000
vt 0.375000 1.000000
vt 0.125000 0.500000
vt 0.125000 0.750000
vt 0.875000 0.500000
vt 0.875000 0.750000
vt 0.375000 0.000000
vt 0.625000 0.000000
vt 0.625000 0.250000
vt 0.375000 0.250000
vt 0.625000 0.500000
vt 0.375000 0.500000
vt 0.625000 0.750000
vt 0.375000 0.750000
vt 0.625000 1.000000
vt 0.375000 1.000000
vt 0.125000 0.500000
vt 0.125000 0.750000
vt 0.875000 0.500000
vt 0.875000 0.750000
vt 0.375000 0.000000
vt 0.625000 0.000000
vt 0.625000 0.250000
vt 0.375000 0.250000
vt 0.625000 0.500000
vt 0.375000 0.500000
vt 0.625000 0.750000
vt 0.375000 0.750000
vt 0.625000 1.000000
vt 0.375000 1.000000
vt 0.125000 0.500000
vt 0.125000 0.750000
vt 0.875000 0.500000
vt 0.875000 0.750000
vt 0.375000 0.000000
vt 0.625000 0.000000
vt 0.625000 0.250000
vt 0.375000 0.250000
vt 0.625000 0.500000
vt 0.375000 0.500000
vt 0.625000 0.750000
vt 0.375000 0.750000
vt 0.625000 1.000000
vt 0.375000 1.000000
vt 0.125000 0.500000
vt 0.125000 0.750000
vt 0.875000 0.500000
vt 0.875000 0.750000
vt 0.375000 0.000000
vt 0.625000 0.000000
vt 0.625000 0.250000
vt 0.375000 0.250000
vt 0.625000 0.500000
vt 0.375000 0.500000
vt 0.625000 0.750000
vt 0.375000 0.750000
vt 0.625000 1.000000
vt 0.375000 1.000000
vt 0.125000 0.500000
vt 0.125000 0.750000
vt 0.875000 0.500000
vt 0.875000 0.750000
vt 0.375000 0.000000
vt 0.625000 0.000000
vt 0.625000 0.250000
vt 0.375000 0.250000
vt 0.625000 0.500000
vt 0.375000 0.500000
vt 0.625000 0.750000
vt 0.375000 0.750000
vt 0.625000 1.000000
vt 0.375000 1.000000
vt 0.125000 0.500000
vt 0.125000 0.750000
vt 0.875000 0.500000
vt 0.875000 0.750000
vt 0.375000 0.000000
vt 0.625000 0.000000
vt 0.625000 0.250000
vt 0.375000 0.250000
vt 0.625000 0.500000
vt 0.375000 0.500000
vt 0.625000 0.750000
vt 0.375000 0.750000
vt 0.625000 1.000000
vt 0.375000 1.000000
vt 0.125000 0.500000
vt 0.125000 0.750000
vt 0.875000 0.500000
vt 0.875000 0.750000
vt 0.375000 0.000000
vt 0.625000 0.000000
vt 0.625000 0.250000
vt 0.375000 0.250000
vt 0.625000 0.500000
vt 0.375000 0.500000
vt 0.625000 0.750000
vt 0.375000 0.750000
vt 0.625000 1.000000
vt 0.375000 1.000000
vt 0.125000 0.500000
vt 0.125000 0.750000
vt 0.875000 0.500000
vt 0.875000 0.750000
vn -1.0000 0.0000 0.0000
vn 0.0000 0.0000 -1.0000
vn 1.0000 0.0000 0.0000
vn 0.0000 0.0000 1.0000
vn 0.0000 -1.0000 0.0000
vn 0.0000 1.0000 0.0000
usemtl Material.004
s off
f 17/29/13 18/30/13 20/31/13 19/32/13
f 19/32/14 20/31/14 24/33/14 23/34/14
f 23/34/15 24/33/15 22/35/15 21/36/15
f 21/36/16 22/35/16 18/37/16 17/38/16
f 19/39/17 23/34/17 21/36/17 17/40/17
f 24/33/18 20/41/18 18/42/18 22/35/18
f 25/43/13 26/44/13 28/45/13 27/46/13
f 27/46/14 28/45/14 32/47/14 31/48/14
f 31/48/15 32/47/15 30/49/15 29/50/15
f 29/50/16 30/49/16 26/51/16 25/52/16
f 27/53/17 31/48/17 29/50/17 25/54/17
f 32/47/18 28/55/18 26/56/18 30/49/18
f 33/57/13 34/58/13 36/59/13 35/60/13
f 35/60/14 36/59/14 40/61/14 39/62/14
f 39/62/15 40/61/15 38/63/15 37/64/15
f 37/64/16 38/63/16 34/65/16 33/66/16
f 35/67/17 39/62/17 37/64/17 33/68/17
f 40/61/18 36/69/18 34/70/18 38/63/18
f 41/71/13 42/72/13 44/73/13 43/74/13
f 43/74/14 44/73/14 48/75/14 47/76/14
f 47/76/15 48/75/15 46/77/15 45/78/15
f 45/78/16 46/77/16 42/79/16 41/80/16
f 43/81/17 47/76/17 45/78/17 41/82/17
f 48/75/18 44/83/18 42/84/18 46/77/18
f 49/85/13 50/86/13 52/87/13 51/88/13
f 51/88/14 52/87/14 56/89/14 55/90/14
f 55/90/15 56/89/15 54/91/15 53/92/15
f 53/92/16 54/91/16 50/93/16 49/94/16
f 51/95/17 55/90/17 53/92/17 49/96/17
f 56/89/18 52/97/18 50/98/18 54/91/18
f 57/99/16 58/100/16 60/101/16 59/102/16
f 59/102/13 60/101/13 64/103/13 63/104/13
f 63/104/14 64/103/14 62/105/14 61/106/14
f 61/106/15 62/105/15 58/107/15 57/108/15
f 59/109/17 63/104/17 61/106/17 57/110/17
f 64/103/18 60/111/18 58/112/18 62/105/18
f 65/113/13 66/114/13 68/115/13 67/116/13
f 67/116/14 68/115/14 72/117/14 71/118/14
f 71/118/15 72/117/15 70/119/15 69/120/15
f 69/120/16 70/119/16 66/121/16 65/122/16
f 67/123/17 71/118/17 69/120/17 65/124/17
f 72/117/18 68/125/18 66/126/18 70/119/18
f 73/127/13 74/128/13 76/129/13 75/130/13
f 75/130/14 76/129/14 80/131/14 79/132/14
f 79/132/15 80/131/15 78/133/15 77/134/15
f 77/134/16 78/133/16 74/135/16 73/136/16
f 75/137/17 79/132/17 77/134/17 73/138/17
f 80/131/18 76/139/18 74/140/18 78/133/18
f 81/141/18 82/142/18 84/143/18 83/144/18
f 83/144/13 84/143/13 88/145/13 87/146/13
f 87/146/17 88/145/17 86/147/17 85/148/17
f 85/148/15 86/147/15 82/149/15 81/150/15
f 83/151/16 87/146/16 85/148/16 81/152/16
f 88/145/14 84/153/14 82/154/14 86/147/14
f 89/155/18 90/156/18 92/157/18 91/158/18
f 91/158/14 92/157/14 96/159/14 95/160/14
f 95/160/17 96/159/17 94/161/17 93/162/17
f 93/162/16 94/161/16 90/163/16 89/164/16
f 91/165/13 95/160/13 93/162/13 89/166/13
f 96/159/15 92/167/15 90/168/15 94/161/15
f 97/169/18 98/170/18 100/171/18 99/172/18
f 99/172/14 100/171/14 104/173/14 103/174/14
f 103/174/17 104/173/17 102/175/17 101/176/17
f 101/176/16 102/175/16 98/177/16 97/178/16
f 99/179/13 103/174/13 101/176/13 97/180/13
f 104/173/15 100/181/15 98/182/15 102/175/15
f 105/183/18 106/184/18 108/185/18 107/186/18
f 107/186/13 108/185/13 112/187/13 111/188/13
f 111/188/17 112/187/17 110/189/17 109/190/17
f 109/190/15 110/189/15 106/191/15 105/192/15
f 107/193/16 111/188/16 109/190/16 105/194/16
f 112/187/14 108/195/14 106/196/14 110/189/14
f 113/197/13 114/198/13 116/199/13 115/200/13
f 115/200/14 116/199/14 120/201/14 119/202/14
f 119/202/15 120/201/15 118/203/15 117/204/15
f 117/204/16 118/203/16 114/205/16 113/206/16
f 115/207/17 119/202/17 117/204/17 113/208/17
f 120/201/18 116/209/18 114/210/18 118/203/18
f 121/211/13 122/212/13 124/213/13 123/214/13
f 123/214/14 124/213/14 128/215/14 127/216/14
f 127/216/15 128/215/15 126/217/15 125/218/15
f 125/218/16 126/217/16 122/219/16 121/220/16
f 123/221/17 127/216/17 125/218/17 121/222/17
f 128/215/18 124/223/18 122/224/18 126/217/18
f 129/225/13 130/226/13 132/227/13 131/228/13
f 131/228/14 132/227/14 136/229/14 135/230/14
f 135/230/15 136/229/15 134/231/15 133/232/15
f 133/232/16 134/231/16 130/233/16 129/234/16
f 131/235/17 135/230/17 133/232/17 129/236/17
f 136/229/18 132/237/18 130/238/18 134/231/18
f 137/239/13 138/240/13 140/241/13 139/242/13
f 139/242/14 140/241/14 144/243/14 143/244/14
f 143/244/15 144/243/15 142/245/15 141/246/15
f 141/246/16 142/245/16 138/247/16 137/248/16
f 139/249/17 143/244/17 141/246/17 137/250/17
f 144/243/18 140/251/18 138/252/18 142/245/18
f 145/253/13 146/254/13 148/255/13 147/256/13
f 147/256/14 148/255/14 152/257/14 151/258/14
f 151/258/15 152/257/15 150/259/15 149/260/15
f 149/260/16 150/259/16 146/261/16 145/262/16
f 147/263/17 151/258/17 149/260/17 145/264/17
f 152/257/18 148/265/18 146/266/18 150/259/18
f 153/267/13 154/268/13 156/269/13 155/270/13
f 155/270/14 156/269/14 160/271/14 159/272/14
f 159/272/15 160/271/15 158/273/15 157/274/15
f 157/274/16 158/273/16 154/275/16 153/276/16
f 155/277/17 159/272/17 157/274/17 153/278/17
f 160/271/18 156/279/18 154/280/18 158/273/18
f 161/281/13 162/282/13 164/283/13 163/284/13
f 163/284/14 164/283/14 168/285/14 167/286/14
f 167/286/15 168/285/15 166/287/15 165/288/15
f 165/288/16 166/287/16 162/289/16 161/290/16
f 163/291/17 167/286/17 165/288/17 161/292/17
f 168/285/18 164/293/18 162/294/18 166/287/18
f 169/295/13 170/296/13 172/297/13 171/298/13
f 171/298/14 172/297/14 176/299/14 175/300/14
f 175/300/15 176/299/15 174/301/15 173/302/15
f 173/302/16 174/301/16 170/303/16 169/304/16
f 171/305/17 175/300/17 173/302/17 169/306/17
f 176/299/18 172/307/18 170/308/18 174/301/18
