# Blender v2.91.0 OBJ File: ''
# www.blender.org
mtllib Cash_Wrap.mtl
o Cash_Wrap
v 0.000000 -0.000474 1.657422
v 0.000000 0.102210 1.657422
v -0.742236 0.102210 1.657422
v -0.742236 -0.000474 1.657422
v 0.710236 0.102210 1.625422
v 0.710236 1.076535 1.625422
v 0.000000 1.076535 1.625422
v 0.000000 0.102210 1.625422
v 0.000000 1.555526 1.625422
v -0.710236 1.555526 1.625422
v -0.710236 1.076535 1.625422
v 0.710236 1.555526 1.625422
v 0.742236 -0.000474 1.560125
v 0.742236 0.102210 1.560125
v 0.742236 0.102210 1.657422
v 0.742236 -0.000474 1.657422
v 0.710236 0.102211 0.476511
v 0.710236 1.076535 0.476511
v 0.710236 1.076535 1.560125
v 0.710236 0.102210 1.560125
v 0.742236 -0.000474 -1.657422
v 0.742236 0.102211 -1.657422
v 0.742236 0.102211 0.476511
v 0.742236 -0.000474 0.476511
v 0.710236 1.555526 1.560126
v -0.710236 0.102210 1.560125
v -0.710236 1.076535 1.560125
v -0.710236 1.076535 0.476511
v -0.710236 0.102211 0.476511
v 0.710236 1.076535 -1.625421
v 0.710236 1.555526 -1.625421
v 0.710236 1.555526 0.476511
v 0.000000 0.102211 -1.625422
v 0.000000 1.076535 -1.625421
v 0.710236 0.102211 -1.625422
v -0.742236 -0.000474 -1.657422
v -0.742236 0.102211 -1.657422
v 0.000000 0.102211 -1.657422
v 0.000000 -0.000474 -1.657422
v 0.000000 1.555526 -1.625421
v -0.710236 1.076535 -1.625421
v -0.710236 1.555526 -1.625421
v -0.710236 0.102211 -1.625422
v -0.742236 -0.000474 1.560125
v -0.742236 0.102210 1.560125
v -0.742236 0.102211 0.476511
v -0.742236 -0.000474 0.476511
v -0.710236 0.102210 1.625422
v -0.710236 1.555526 0.476511
v -0.710236 1.555526 1.560126
v 0.000000 1.555526 1.560126
v 0.000000 1.555526 0.476511
v 0.000000 -0.000474 0.476511
v 0.000000 -0.000474 1.560125
vt 0.500000 0.033820
vt 0.000000 0.000000
vt 0.500000 0.000000
vt 1.000000 0.500000
vt 0.500000 0.033820
vt 1.000000 0.033820
vt 0.500000 1.000000
vt 0.000000 0.500000
vt 0.500000 0.500000
vt 1.000000 1.000000
vt 0.333333 0.033820
vt 0.000000 0.000000
vt 0.333333 0.000000
vt 0.666667 0.500000
vt 0.333333 0.033820
vt 0.666667 0.033820
vt 1.000000 0.033820
vt 0.666667 0.000000
vt 1.000000 0.000000
vt 0.333333 1.000000
vt 0.000000 0.500000
vt 0.333333 0.500000
vt 0.666667 0.500000
vt 0.333333 0.033820
vt 0.666667 0.033820
vt 1.000000 1.000000
vt 1.000000 0.500000
vt 0.500000 0.500000
vt 0.000000 0.033820
vt 0.500000 0.033820
vt 1.000000 0.033820
vt 0.500000 0.000000
vt 1.000000 0.000000
vt 0.500000 1.000000
vt 0.000000 0.500000
vt 1.000000 1.000000
vt 1.000000 0.500000
vt 0.333333 0.500000
vt 0.000000 0.033820
vt 0.666667 0.033820
vt 0.333333 0.000000
vt 0.666667 0.000000
vt 1.000000 0.500000
vt 1.000000 0.033820
vt 0.333333 1.000000
vt 0.000000 0.500000
vt 0.666667 1.000000
vt 1.000000 1.000000
vt 0.500000 0.333333
vt 0.000000 0.000000
vt 0.500000 0.000000
vt 1.000000 0.333333
vt 1.000000 0.000000
vt 0.500000 0.666667
vt 0.000000 0.333333
vt 1.000000 0.033820
vt 0.000000 0.666667
vt 1.000000 0.666667
vt 0.500000 0.333333
vt 0.000000 0.000000
vt 1.000000 0.333333
vt 0.500000 0.666667
vt 0.000000 0.333333
vt 1.000000 0.666667
vt 0.500000 1.000000
vt 0.000000 0.666667
vt 1.000000 1.000000
vt 0.000000 0.033820
vt 1.000000 0.033820
vt 0.000000 0.033820
vt 0.666667 0.033820
vt 1.000000 0.033820
vt 0.000000 0.000000
vt 0.500000 0.033820
vt 0.000000 0.033820
vt 1.000000 0.033820
vt 0.333333 0.033820
vt 0.000000 0.033820
vt 0.000000 0.033820
vt 0.000000 1.000000
vt 0.000000 0.033820
vt 0.000000 1.000000
vt 0.666667 1.000000
vt 0.000000 1.000000
vt 0.000000 1.000000
vt 1.000000 0.000000
vt 0.000000 1.000000
vt 1.000000 0.000000
vn 0.0000 0.0000 1.0000
vn 1.0000 0.0000 0.0000
vn -1.0000 0.0000 0.0000
vn 0.0000 0.0000 -1.0000
vn 0.0000 1.0000 0.0000
vn 0.0000 -1.0000 -0.0000
g Cash_Wrap_Cash_Wrap_default
usemtl default
s 1
f 2/1/1 4/2/1 1/3/1
f 6/4/1 8/5/1 5/6/1
f 9/7/1 11/8/1 7/9/1
f 12/10/1 7/9/1 6/4/1
f 14/11/2 16/12/2 13/13/2
f 18/14/2 20/15/2 17/16/2
f 22/17/2 24/18/2 21/19/2
f 25/20/2 6/21/2 19/22/2
f 27/23/3 29/24/3 26/25/3
f 31/26/2 18/14/2 30/27/2
f 34/28/4 35/29/4 33/30/4
f 37/31/4 39/32/4 36/33/4
f 40/34/4 30/35/4 34/28/4
f 42/36/4 34/28/4 41/37/4
f 28/38/3 43/39/3 29/24/3
f 45/40/3 47/41/3 44/42/3
f 11/43/3 26/25/3 48/44/3
f 49/45/3 41/46/3 28/38/3
f 50/47/3 28/38/3 27/23/3
f 10/48/3 27/23/3 11/43/3
f 51/49/5 10/50/5 9/51/5
f 25/52/5 9/51/5 12/53/5
f 52/54/5 50/55/5 51/49/5
f 44/42/3 3/56/3 45/40/3
f 40/34/5 49/57/5 52/54/5
f 31/26/5 52/54/5 32/58/5
f 53/59/6 36/60/6 39/32/6
f 24/61/6 39/32/6 21/19/6
f 54/62/6 47/63/6 53/59/6
f 13/64/6 53/59/6 24/61/6
f 1/65/6 44/66/6 54/62/6
f 16/67/6 54/62/6 13/64/6
f 7/9/1 48/68/1 8/5/1
f 1/3/1 15/69/1 2/1/1
f 19/22/2 5/70/2 20/15/2
f 13/13/2 23/71/2 14/11/2
f 30/27/2 17/16/2 35/72/2
f 21/73/4 38/74/4 22/75/4
f 41/37/4 33/30/4 43/76/4
f 36/60/3 46/77/3 37/78/3
f 48/68/5 2/1/5 8/5/5
f 5/70/5 14/11/5 20/15/5
f 23/71/5 35/72/5 17/16/5
f 38/74/5 43/76/5 33/30/5
f 46/77/5 26/25/5 29/24/5
f 45/40/5 48/44/5 26/25/5
f 2/1/5 5/6/5 8/5/5
f 14/11/5 17/16/5 20/15/5
f 35/29/5 38/74/5 33/30/5
f 43/39/5 46/77/5 29/24/5
f 2/1/1 3/79/1 4/2/1
f 6/4/1 7/9/1 8/5/1
f 9/7/1 10/80/1 11/8/1
f 12/10/1 9/7/1 7/9/1
f 14/11/2 15/81/2 16/12/2
f 18/14/2 19/22/2 20/15/2
f 22/17/2 23/71/2 24/18/2
f 25/20/2 12/82/2 6/21/2
f 27/23/3 28/38/3 29/24/3
f 31/26/2 32/83/2 18/14/2
f 34/28/4 30/35/4 35/29/4
f 37/31/4 38/74/4 39/32/4
f 40/34/4 31/84/4 30/35/4
f 42/36/4 40/34/4 34/28/4
f 28/38/3 41/46/3 43/39/3
f 45/40/3 46/77/3 47/41/3
f 11/43/3 27/23/3 26/25/3
f 49/45/3 42/85/3 41/46/3
f 50/47/3 49/45/3 28/38/3
f 10/48/3 50/47/3 27/23/3
f 51/49/5 50/55/5 10/50/5
f 25/52/5 51/49/5 9/51/5
f 52/54/5 49/57/5 50/55/5
f 44/42/3 4/86/3 3/56/3
f 40/34/5 42/85/5 49/57/5
f 31/26/5 40/34/5 52/54/5
f 53/59/6 47/63/6 36/60/6
f 24/61/6 53/59/6 39/32/6
f 54/62/6 44/66/6 47/63/6
f 13/64/6 54/62/6 53/59/6
f 1/65/6 4/87/6 44/66/6
f 16/67/6 1/65/6 54/62/6
f 7/9/1 11/8/1 48/68/1
f 1/3/1 16/88/1 15/69/1
f 19/22/2 6/21/2 5/70/2
f 13/13/2 24/18/2 23/71/2
f 30/27/2 18/14/2 17/16/2
f 21/73/4 39/32/4 38/74/4
f 41/37/4 34/28/4 33/30/4
f 36/60/3 47/41/3 46/77/3
f 48/68/5 3/79/5 2/1/5
f 5/70/5 15/81/5 14/11/5
f 23/71/5 22/17/5 35/72/5
f 38/74/5 37/31/5 43/76/5
f 46/77/5 45/40/5 26/25/5
f 45/40/5 3/56/5 48/44/5
f 2/1/5 15/69/5 5/6/5
f 14/11/5 23/71/5 17/16/5
f 35/29/5 22/75/5 38/74/5
f 43/39/5 37/78/5 46/77/5
o Cube.001
v 0.694920 1.054667 1.584635
v 0.694920 1.550020 1.584635
v -0.030044 1.550020 1.584635
v -0.030044 1.054667 1.584635
v 0.694920 1.054667 0.448926
v -0.030044 1.054667 0.448926
v -0.030044 1.550021 0.448926
v 0.694920 1.550021 0.448926
v 0.477642 0.362357 1.027372
vt 1.000000 1.000000
vt 0.000000 0.000000
vt 1.000000 0.000000
vt 1.000000 1.000000
vt 0.000000 0.000000
vt 1.000000 0.000000
vt 1.000000 1.000000
vt 0.000000 0.000000
vt 1.000000 0.000000
vt 1.000000 1.000000
vt 1.000000 0.000000
vt 0.000000 1.000000
vt 0.000000 1.000000
vt 0.000000 1.000000
vt 0.000000 1.000000
vn 0.0000 -0.0000 1.0000
vn 0.0000 -1.0000 -0.0000
vn 0.0000 0.0000 -1.0000
vn -1.0000 -0.0000 0.0000
g Cube.001_Cube.001_default
usemtl default
s 1
f 56/89/7 58/90/7 55/91/7
f 55/92/8 60/93/8 59/94/8
f 61/95/9 59/96/9 60/97/9
f 57/98/10 60/93/10 58/99/10
f 56/89/7 57/100/7 58/90/7
f 55/92/8 58/101/8 60/93/8
f 61/95/9 62/102/9 59/96/9
f 57/98/10 61/103/10 60/93/10
l 60 63
